<?xml version="1.0" encoding="UTF-8" standalone="no"?>
<svg width="200px" height="68px" viewBox="0 0 200 68" version="1.1" xmlns="http://www.w3.org/2000/svg" xmlns:xlink="http://www.w3.org/1999/xlink" xmlns:sketch="http://www.bohemiancoding.com/sketch/ns">
    <!-- Generator: Sketch 3.4.1 (15681) - http://www.bohemiancoding.com/sketch -->
    <title>App Store</title>
    <desc>Created with Sketch.</desc>
    <defs></defs>
    <g id="Page-1" stroke="none" stroke-width="1" fill="none" fill-rule="evenodd" sketch:type="MSPage">
        <g id="App-Store" sketch:type="MSLayerGroup">
            <rect id="background" fill="#000000" sketch:type="MSShapeGroup" x="0" y="0" width="200" height="68" rx="8.14035088"></rect>
            <g id="icon" transform="translate(17.738659, 11.968000)" fill="#FFFFFF" sketch:type="MSShapeGroup">
                <path d="M26.0447889,20.4753753 C26.0012127,15.6112847 30.0102285,13.2448888 30.1935493,13.1347186 C27.9230759,9.80999267 24.4039174,9.35572917 23.1672533,9.31950882 C20.2115808,9.00710834 17.3445635,11.0958149 15.8389287,11.0958149 C14.3032412,11.0958149 11.9846838,9.34969244 9.48581073,9.4010046 C6.27018338,9.45080757 3.26191892,11.3206829 1.61203162,14.2243473 C-1.79292706,20.1448646 0.746516967,28.8452935 4.00872583,33.6309066 C5.64058158,35.976174 7.54741854,38.5915848 10.0432863,38.4995247 C12.4850594,38.3999188 13.3971556,36.9360132 16.3438122,36.9360132 C19.2634215,36.9360132 20.1199204,38.4995247 22.665375,38.4391575 C25.285961,38.3999188 26.9358483,36.0863442 28.5106041,33.7199483 C30.3964043,31.0366244 31.1537296,28.3880116 31.1837822,28.2521853 C31.123677,28.232566 26.0958783,26.3053417 26.0447889,20.4753753" id="Fill-2"></path>
                <path d="M21.2363742,6.17135711 C22.5496725,4.52182221 23.448245,2.27766996 23.1988085,0.000315732532 C21.297982,0.0848298723 18.920822,1.32084917 17.5519264,2.93416373 C16.340807,4.35581229 15.2589137,6.68598786 15.5384028,8.87731877 C17.6736394,9.03729196 19.865976,7.79523594 21.2363742,6.17135711" id="Fill-3"></path>
            </g>
            <g transform="translate(62.288422, 29.784000)" fill="#FFFFFF" sketch:type="MSShapeGroup">
                <path d="M16.8624188,20.3469774 L13.449947,20.3469774 L11.5806758,14.4475886 L5.0833054,14.4475886 L3.30268932,20.3469774 L-0.0196247292,20.3469774 L6.41914311,0.262795733 L10.395101,0.262795733 L16.8624188,20.3469774 L16.8624188,20.3469774 Z M11.0171897,11.9725316 L9.32673139,6.7296366 C9.14791847,6.19236814 8.81132944,4.93069277 8.31846693,2.94461049 L8.25836175,2.94461049 C8.06001464,3.79880697 7.74295979,5.06048234 7.30869984,6.7296366 L5.6467915,11.9725316 L11.0171897,11.9725316 L11.0171897,11.9725316 Z" id="Fill-4"></path>
                <path d="M33.3883392,12.9278432 C33.3883392,15.3908267 32.7226743,17.3376703 31.3898418,18.7668648 C30.1967539,20.0391044 28.7136585,20.6744697 26.9450635,20.6744697 C25.0352213,20.6744697 23.6618178,19.9908106 22.8278584,18.618965 L22.8278584,26.2176917 L19.6242521,26.2176917 L19.6242521,10.6248329 C19.6242521,9.07792234 19.5836811,7.49177304 19.5055443,5.86487585 L22.3229748,5.86487585 L22.5017877,8.16184944 L22.5618929,8.16184944 C23.6302626,6.43081875 25.2515999,5.566058 27.4274076,5.566058 C29.1283843,5.566058 30.5483693,6.24066194 31.6843572,7.59137899 C32.8188426,8.94511441 33.3883392,10.7229297 33.3883392,12.9278432 L33.3883392,12.9278432 Z M30.1246277,13.0455594 C30.1246277,11.6359843 29.8090755,10.4739148 29.1749658,9.5593511 C28.4822536,8.60705785 27.5521258,8.12864745 26.3860853,8.12864745 C25.5957021,8.12864745 24.8774451,8.39426332 24.2358223,8.91945833 C23.5926968,9.44616252 23.1719605,10.1358583 22.9751161,10.9915639 C22.8759425,11.3884786 22.8263557,11.7129525 22.8263557,11.9695133 L22.8263557,14.3872213 C22.8263557,15.4376114 23.1479185,16.326519 23.7910439,17.0539443 C24.4341694,17.7783512 25.2696315,18.1420638 26.2974301,18.1420638 C27.5040417,18.1420638 28.4431852,17.6727085 29.1148606,16.7415438 C29.7880387,15.8073607 30.1246277,14.575869 30.1246277,13.0455594 L30.1246277,13.0455594 Z" id="Fill-5"></path>
                <path d="M49.9728621,12.9278432 C49.9728621,15.3908267 49.3071972,17.3376703 47.9743648,18.7668648 C46.7797742,20.0391044 45.2981814,20.6744697 43.5280838,20.6744697 C41.6197442,20.6744697 40.2463407,19.9908106 39.4108787,18.618965 L39.4108787,26.2176917 L36.2072723,26.2176917 L36.2072723,10.6248329 C36.2072723,9.07792234 36.1667013,7.49177304 36.0885646,5.86487585 L38.9059951,5.86487585 L39.084808,8.16184944 L39.1449132,8.16184944 C40.2117802,6.43081875 41.8331176,5.566058 44.0104279,5.566058 C45.7099019,5.566058 47.1313895,6.24066194 48.2688802,7.59137899 C49.4018629,8.94511441 49.9728621,10.7229297 49.9728621,12.9278432 L49.9728621,12.9278432 Z M46.707648,13.0455594 C46.707648,11.6359843 46.3905932,10.4739148 45.7564835,9.5593511 C45.0652738,8.60705785 44.1366487,8.12864745 42.9706082,8.12864745 C42.180225,8.12864745 41.4619681,8.39426332 40.81734,8.91945833 C40.1757171,9.44616252 39.7549808,10.1358583 39.5581364,10.9915639 C39.4604654,11.3884786 39.4078734,11.7129525 39.4078734,11.9695133 L39.4078734,14.3872213 C39.4078734,15.4376114 39.7309388,16.326519 40.371059,17.0539443 C41.0141844,17.776842 41.8496465,18.1420638 42.8804504,18.1420638 C44.0885646,18.1420638 45.0277081,17.6727085 45.6978809,16.7415438 C46.371059,15.8073607 46.707648,14.575869 46.707648,13.0455594 L46.707648,13.0455594 Z" id="Fill-6"></path>
                <path d="M68.5153114,14.7147136 C68.5153114,16.4231066 67.9217727,17.8130624 66.7377006,18.8860901 C65.4364234,20.0572146 63.6197442,20.644286 61.2906683,20.644286 C59.1389027,20.644286 57.4138839,20.2277521 56.1126067,19.3931749 L56.8534031,16.7113602 C58.2583617,17.5459373 59.8015623,17.9639805 61.4815022,17.9639805 C62.6896164,17.9639805 63.6287599,17.6893095 64.2989327,17.1444951 C64.9721108,16.5966624 65.3102025,15.867728 65.3102025,14.9561826 C65.3102025,14.1397156 65.0307134,13.4545474 64.4777457,12.8976596 C63.9232753,12.3437902 63.0066713,11.8246319 61.7204203,11.350749 C58.2192934,10.0392707 56.4672273,8.11959237 56.4672273,5.5977508 C56.4672273,3.94972508 57.0863107,2.60051721 58.3199696,1.54559964 C59.5551311,0.492191255 61.1929974,-0.0345129376 63.2305631,-0.0345129376 C65.0502475,-0.0345129376 66.5664008,0.283924267 67.7700071,0.919289497 L66.9661003,3.54224619 C65.8331176,2.92650032 64.5543798,2.61862738 63.1238764,2.61862738 C61.9938989,2.61862738 61.1058448,2.89782588 60.4732378,3.45320451 C59.9398043,3.94972508 59.6678283,4.55490669 59.6678283,5.27327687 C59.6678283,6.06559693 59.9758674,6.72359988 60.5904429,7.23823062 C61.1223738,7.71513184 62.0930725,8.23278095 63.4965285,8.78815958 C65.2185421,9.48540123 66.4822536,10.2973406 67.2936735,11.2300145 C68.1096014,12.1626884 68.5153114,13.326267 68.5153114,14.7147136" id="Fill-7"></path>
                <path d="M79.1343948,8.27956556 L75.6032152,8.27956556 L75.6032152,15.3108402 C75.6032152,17.0992197 76.2253039,17.9911457 77.4724865,17.9911457 C78.0449883,17.9911457 78.5198193,17.9428519 78.8954767,17.8417368 L78.9841318,20.2851009 C78.3530274,20.5220424 77.5220732,20.6412677 76.4942746,20.6412677 C75.2275578,20.6412677 74.2403302,20.251899 73.5250785,19.4776891 C72.8128321,18.70197 72.4567089,17.4025651 72.4567089,15.5734377 L72.4567089,8.27352884 L70.35453,8.27352884 L70.35453,5.85883913 L72.4567089,5.85883913 L72.4567089,3.20720799 L75.6032152,2.25340556 L75.6032152,5.85883913 L79.1343948,5.85883913 L79.1343948,8.27956556" id="Fill-8"></path>
                <path d="M95.0352213,12.9867013 C95.0352213,15.2127434 94.4026142,17.0403617 93.1358974,18.4695561 C91.8120808,19.9394985 90.0509989,20.6744697 87.855657,20.6744697 C85.7369493,20.6744697 84.0525015,19.9696821 82.7963031,18.560107 C81.5401048,17.1505319 80.9120056,15.3727166 80.9120056,13.2281703 C80.9120056,10.984018 81.5626442,9.14583549 82.8549057,7.71664102 C84.1501724,6.28744655 85.896228,5.57058554 88.0915699,5.57058554 C90.208775,5.57058554 91.9067464,6.27839147 93.1945,7.6864574 C94.423651,9.05528463 95.0352213,10.8195173 95.0352213,12.9867013 L95.0352213,12.9867013 Z M91.7144098,13.0606512 C91.7144098,11.734081 91.4289102,10.5961585 90.8564083,9.64386524 C90.1847329,8.49386927 89.2215473,7.92038047 87.97737,7.92038047 C86.695627,7.92038047 85.7083993,8.49386927 85.0397291,9.64386524 C84.464222,10.5961585 84.180225,11.7537004 84.180225,13.1210184 C84.180225,14.4490978 84.464222,15.5900386 85.0397291,16.5378044 C85.7324414,17.6893095 86.6986322,18.2643075 87.9518253,18.2643075 C89.1749658,18.2643075 90.1351461,17.6757269 90.8308636,16.5106391 C91.4183918,15.5357081 91.7144098,14.3902397 91.7144098,13.0606512 L91.7144098,13.0606512 Z" id="Fill-9"></path>
                <path d="M105.452952,8.69459035 C105.135897,8.63573229 104.796303,8.60705785 104.443185,8.60705785 C103.316213,8.60705785 102.444688,9.03113773 101.831615,9.88835258 C101.298181,10.6429431 101.032216,11.5967455 101.032216,12.7482507 L101.032216,20.3469774 L97.8286097,20.3469774 L97.8286097,10.425621 C97.8286097,8.75797596 97.7970545,7.23521226 97.7354466,5.86638503 L100.52583,5.86638503 L100.643035,8.63724147 L100.73169,8.63724147 C101.071284,7.68494822 101.603215,6.91677506 102.333493,6.34328625 C103.048745,5.82412796 103.818091,5.566058 104.649045,5.566058 C104.945063,5.566058 105.212532,5.58869572 105.449947,5.62491606 L105.452952,8.69459035" id="Fill-10"></path>
                <path d="M119.780526,12.4207584 C119.780526,12.9972656 119.74296,13.4832219 119.66332,13.8801365 L110.054004,13.8801365 C110.088565,15.3108402 110.555882,16.4065056 111.446942,17.1610961 C112.256859,17.8341909 113.305695,18.1722475 114.590443,18.1722475 C116.013433,18.1722475 117.311705,17.9458703 118.479248,17.4870792 L118.981127,19.7206672 C117.616739,20.3167937 116.004417,20.6156116 114.147167,20.6156116 C111.911254,20.6156116 110.156183,19.9545903 108.878948,18.635566 C107.60622,17.3150326 106.9661,15.5387265 106.9661,13.317212 C106.9661,11.1349361 107.558136,9.31637295 108.748219,7.86604995 C109.992396,6.31763017 111.673839,5.54342029 113.789541,5.54342029 C115.867678,5.54342029 117.440931,6.31763017 118.507798,7.86604995 C119.355281,9.09301415 119.780526,10.6142687 119.780526,12.4207584 L119.780526,12.4207584 Z M116.72568,11.5861813 C116.748219,10.6308697 116.537851,9.80987516 116.103591,9.11263351 C115.549121,8.21617995 114.695627,7.76946236 113.552126,7.76946236 C112.50329,7.76946236 111.651299,8.20561569 111.002163,9.08094071 C110.46873,9.77667318 110.151675,10.6142687 110.054004,11.5831629 L116.72568,11.5861813 L116.72568,11.5861813 Z" id="Fill-11"></path>
            </g>
            <g id="Available-on-the" transform="translate(63.507109, 12.512000)" fill="#FFFFFF" sketch:type="MSShapeGroup">
                <path d="M8.25379994,10.3465663 L6.57536267,10.3465663 L5.65725599,7.44742948 L2.46416808,7.44742948 L1.58813503,10.3465663 L-0.0452233521,10.3465663 L3.11931459,0.475012953 L5.07273307,0.475012953 L8.25379994,10.3465663 L8.25379994,10.3465663 Z M5.38077214,6.23102954 L4.54981797,3.65334828 C4.46266545,3.38924159 4.30188409,2.7750049 4.0539502,1.79403721 L4.02389761,1.79403721 C3.9217188,2.21811708 3.77596373,2.83386296 3.5565798,3.65334828 L2.74065193,6.23102954 L5.38077214,6.23102954 L5.38077214,6.23102954 Z" id="Fill-12"></path>
                <path d="M16.1666474,3.2292684 L13.482951,10.3465663 L11.9517714,10.3465663 L9.35522744,3.2292684 L11.0471884,3.2292684 L12.2583078,6.99316598 C12.4626655,7.62249449 12.6369705,8.22314855 12.7676993,8.79361899 L12.8112755,8.79361899 C12.9284806,8.28200661 13.1027857,7.68135255 13.320667,6.99316598 L14.5167601,3.2292684 L16.1666474,3.2292684" id="Fill-13"></path>
                <path d="M21.8796452,10.3465663 L21.7624401,9.52708099 L21.7188638,9.52708099 C21.2380223,10.1865931 20.5377969,10.5080487 19.6482402,10.5080487 C18.3800208,10.5080487 17.4754378,9.61461349 17.4754378,8.41330536 C17.4754378,6.6566186 18.9915911,5.7480916 21.616685,5.7480916 L21.616685,5.61679285 C21.616685,4.6795914 21.1208172,4.21023609 20.144108,4.21023609 C19.4438826,4.21023609 18.8308097,4.38681028 18.2928683,4.73844947 L17.9728082,3.69862371 C18.6294573,3.28812646 19.4453852,3.08287784 20.4085708,3.08287784 C22.2598105,3.08287784 23.1944461,4.06384553 23.1944461,6.0272901 L23.1944461,8.64873761 C23.1944461,9.3671078 23.2244987,9.92399561 23.2966249,10.3480755 L21.8796452,10.3465663 L21.8796452,10.3465663 Z M21.6602612,6.80149998 C19.9096978,6.80149998 19.0351673,7.22708905 19.0351673,8.23673118 C19.0351673,8.98377581 19.4874588,9.34899763 20.1140554,9.34899763 C20.9164596,9.34899763 21.6602612,8.73476093 21.6602612,7.9001838 L21.6602612,6.80149998 L21.6602612,6.80149998 Z" id="Fill-14"></path>
                <path d="M26.7015836,2.05663471 C26.1771658,2.05663471 25.7684506,1.64613746 25.7684506,1.10434146 C25.7684506,0.562545455 26.1906895,0.167140015 26.7316362,0.167140015 C27.2710802,0.167140015 27.7083454,0.562545455 27.6933191,1.10434146 C27.6933191,1.67632108 27.2861065,2.05663471 26.7015836,2.05663471 L26.7015836,2.05663471 Z M25.9442582,3.2292684 L27.5190141,3.2292684 L27.5190141,10.3465663 L25.9442582,10.3465663 L25.9442582,3.2292684 Z" id="Fill-15"></path>
                <path d="M30.3169104,-0.036599429 L31.8916662,-0.036599429 L31.8916662,10.3465663 L30.3169104,10.3465663 L30.3169104,-0.036599429 Z" id="Fill-16"></path>
                <path d="M38.5843785,10.3465663 L38.4656707,9.52708099 L38.4235971,9.52708099 C37.9427556,10.1865931 37.2425302,10.5080487 36.3529735,10.5080487 C35.0847541,10.5080487 34.1801711,9.61461349 34.1801711,8.41330536 C34.1801711,6.6566186 35.6963244,5.7480916 38.3214183,5.7480916 L38.3214183,5.61679285 C38.3214183,4.6795914 37.8255505,4.21023609 36.8488413,4.21023609 C36.1486159,4.21023609 35.535543,4.38681028 34.9976016,4.73844947 L34.6760389,3.69711453 C35.332688,3.28661728 36.1486159,3.08136866 37.1118014,3.08136866 C38.9630411,3.08136866 39.8991794,4.06233635 39.8991794,6.02578092 L39.8991794,8.64722843 C39.8991794,9.36559862 39.9292319,9.92248643 39.9983529,10.3465663 L38.5843785,10.3465663 L38.5843785,10.3465663 Z M38.3649945,6.80149998 C36.614431,6.80149998 35.7399006,7.22708905 35.7399006,8.23673118 C35.7399006,8.98377581 36.1921921,9.34899763 36.8187887,9.34899763 C37.6211929,9.34899763 38.3649945,8.73476093 38.3649945,7.9001838 L38.3649945,6.80149998 L38.3649945,6.80149998 Z" id="Fill-17"></path>
                <path d="M46.277842,10.5080487 C45.2725828,10.5080487 44.5302838,10.0824596 44.0479397,9.24788249 L44.0178871,9.24788249 L43.9277293,10.3465663 L42.5873837,10.3465663 C42.6294573,9.77609587 42.6444836,9.13016637 42.6444836,8.42839718 L42.6444836,-0.036599429 L44.2222447,-0.036599429 L44.2222447,4.27060334 L44.2507947,4.27060334 C44.7181125,3.47979246 45.4754378,3.08438702 46.5107496,3.08438702 C48.2177368,3.08438702 49.41383,4.54980183 49.41383,6.68680222 C49.41383,8.89624331 48.0855054,10.5080487 46.277842,10.5080487 L46.277842,10.5080487 Z M45.9577819,4.32644304 C45.0516963,4.32644304 44.2222447,5.11725391 44.2222447,6.21593773 L44.2222447,7.46101211 C44.2222447,8.4419798 44.967549,9.24788249 45.9292319,9.24788249 C47.1087962,9.24788249 47.8120268,8.28200661 47.8120268,6.7441511 C47.8105242,5.30891991 47.0802462,4.32644304 45.9577819,4.32644304 L45.9577819,4.32644304 Z" id="Fill-18"></path>
                <path d="M51.7444085,-0.036599429 L53.3176617,-0.036599429 L53.3176617,10.3465663 L51.7444085,10.3465663 L51.7444085,-0.036599429 Z" id="Fill-19"></path>
                <path d="M61.8886609,7.16823098 L57.1613882,7.16823098 C57.1929434,8.51592968 58.0794949,9.27655693 59.3912905,9.27655693 C60.0930186,9.27655693 60.7346414,9.15884081 61.3026354,8.94000956 L61.547564,10.0386934 C60.8773912,10.3314745 60.0900133,10.4778651 59.1719066,10.4778651 C56.9540253,10.4778651 55.6422297,9.07130831 55.6422297,6.89054167 C55.6422297,4.70826585 56.9855806,3.06778603 58.996099,3.06778603 C60.8022597,3.06778603 61.9427556,4.41548472 61.9427556,6.45136998 C61.9472635,6.72905929 61.9337398,6.97807417 61.8886609,7.16823098 L61.8886609,7.16823098 Z M60.4461365,6.04087273 C60.4461365,4.94218891 59.8901636,4.16646984 58.8834017,4.16646984 C57.9788187,4.16646984 57.2665723,4.95728072 57.1613882,6.04087273 L60.4461365,6.04087273 L60.4461365,6.04087273 Z" id="Fill-20"></path>
                <path d="M71.4333642,10.5080487 C69.3627406,10.5080487 68.0208924,8.95510137 68.0208924,6.84677542 C68.0208924,4.64940778 69.3912905,3.08287784 71.5520719,3.08287784 C73.5911403,3.08287784 74.9645437,4.56187528 74.9645437,6.73056847 C74.9645437,8.95510137 73.5490667,10.5080487 71.4333642,10.5080487 L71.4333642,10.5080487 Z M71.4934694,4.23891053 C70.3559788,4.23891053 69.6272034,5.30741073 69.6272034,6.80149998 C69.6272034,8.2669148 70.371005,9.335415 71.4784431,9.335415 C72.5858811,9.335415 73.3296827,8.19296493 73.3296827,6.77131636 C73.3296827,5.32250254 72.6009074,4.23891053 71.4934694,4.23891053 L71.4934694,4.23891053 Z" id="Fill-21"></path>
                <path d="M83.4303589,10.3465663 L81.8586084,10.3465663 L81.8586084,6.25970398 C81.8586084,5.00104697 81.3762643,4.37020929 80.428105,4.37020929 C79.494972,4.37020929 78.8518465,5.17611198 78.8518465,6.11331342 L78.8518465,10.3465663 L77.280096,10.3465663 L77.280096,5.26364448 C77.280096,4.63431597 77.2620644,3.95971204 77.2199908,3.22775922 L78.6054153,3.22775922 L78.6790441,4.32644304 L78.724123,4.32644304 C79.1433567,3.56581578 80.0058661,3.08136866 80.9690516,3.08136866 C82.4536497,3.08136866 83.4303589,4.22381872 83.4303589,6.0831298 L83.4303589,10.3465663" id="Fill-22"></path>
                <path d="M93.7338901,4.41548472 L92.0013582,4.41548472 L92.0013582,7.87150936 C92.0013582,8.75136192 92.306392,9.19053361 92.9179622,9.19053361 C93.1944461,9.19053361 93.4303589,9.16034999 93.6181876,9.11658374 L93.6617639,10.3178919 C93.3552274,10.435608 92.9450096,10.4944661 92.4386234,10.4944661 C91.1959487,10.4944661 90.4566549,9.80627949 90.4566549,8.0043173 L90.4566549,4.41548472 L89.4243484,4.41548472 L89.4243484,3.2292684 L90.4566549,3.2292684 L90.4566549,1.92533596 L92.0013582,1.45598065 L92.0013582,3.22775922 L93.7338901,3.22775922 L93.7338901,4.41548472" id="Fill-23"></path>
                <path d="M102.073484,10.3465663 L100.497226,10.3465663 L100.497226,6.2898876 C100.497226,5.01613878 100.014882,4.37171847 99.0682252,4.37171847 C98.2522973,4.37171847 97.494972,4.92860628 97.494972,6.05596454 L97.494972,10.3465663 L95.9187135,10.3465663 L95.9187135,-0.036599429 L97.494972,-0.036599429 L97.494972,4.23891053 L97.5250246,4.23891053 C98.0193897,3.46319147 98.736144,3.08136866 99.6542507,3.08136866 C101.155378,3.08136866 102.073484,4.25249316 102.073484,6.11331342 L102.073484,10.3465663" id="Fill-24"></path>
                <path d="M110.120066,7.16823098 L105.394296,7.16823098 C105.424348,8.51592968 106.3109,9.27655693 107.624198,9.27655693 C108.327429,9.27655693 108.967549,9.15884081 109.532538,8.94000956 L109.778969,10.0386934 C109.110299,10.3314745 108.321418,10.4778651 107.401809,10.4778651 C105.18543,10.4778651 103.873635,9.07130831 103.873635,6.89054167 C103.873635,4.70826585 105.215483,3.06778603 107.226001,3.06778603 C109.033665,3.06778603 110.172658,4.41548472 110.172658,6.45136998 C110.178668,6.72905929 110.163642,6.97807417 110.120066,7.16823098 L110.120066,7.16823098 Z M108.676039,6.04087273 C108.676039,4.94218891 108.123071,4.16646984 107.116309,4.16646984 C106.211726,4.16646984 105.497977,4.95728072 105.394296,6.04087273 L108.676039,6.04087273 L108.676039,6.04087273 Z" id="Fill-25"></path>
            </g>
        </g>
    </g>
</svg>