<?xml version="1.0" encoding="UTF-8" standalone="no"?>
<svg width="215px" height="214px" viewBox="0 0 215 214" version="1.1" xmlns="http://www.w3.org/2000/svg" xmlns:xlink="http://www.w3.org/1999/xlink" xmlns:sketch="http://www.bohemiancoding.com/sketch/ns">
    <!-- Generator: Sketch 3.4.1 (15681) - http://www.bohemiancoding.com/sketch -->
    <title>BB_Logo Copy 2</title>
    <desc>Created with Sketch.</desc>
    <defs></defs>
    <g id="Page-1" stroke="none" stroke-width="1" fill="none" fill-rule="evenodd" sketch:type="MSPage">
        <g id="BB_Logo-Copy-2" sketch:type="MSLayerGroup">
            <g id="Letter" transform="translate(2.161580, 0.890236)" sketch:type="MSShapeGroup">
                <g id="Clipped" fill="#F589A5">
                    <path d="M71.2923751,51.0421486 C71.2923751,37.2289092 65.3993635,30.3075988 53.5794645,30.3075988 C48.7038848,30.3075988 44.7334726,31.8895729 41.8462785,35.0281884 C38.9583907,38.1314072 37.5344486,42.1855919 37.5344486,47.1168261 C37.5344486,57.5824249 43.493362,62.7820255 55.4043673,62.7820255 L63.1678348,62.7820255 L63.1678348,89.1410511 L48.3628139,89.1410511 C37.5344486,89.1410511 32.0740768,94.9757086 32.0740768,106.603612 C32.0740768,117.765344 36.7864049,123.352225 46.2229698,123.352225 L63.1678348,123.352225 L63.1678348,153.641895 L41.17038,153.641895 C29.029412,153.641895 19.1004332,149.465904 11.4939739,141.100851 C3.8879771,132.745746 0.0750355994,122.203686 0.0750355994,109.413131 C0.0750355994,91.9967249 6.93957896,79.8733847 20.7470542,73.0557192 C10.7525205,66.633663 5.69287808,56.991903 5.69287808,44.0473844 C5.69287808,31.1450873 10.0703786,20.5439171 18.7588998,12.3627879 C27.447421,4.16557995 38.2763645,0.0226723409 51.1844531,0.0226723409 C84.7591262,0.0226723409 101.545827,18.0617585 101.545827,54.0603462 L101.545827,153.641779 L71.2923751,153.641779 L71.2923751,51.0421486 L71.2923751,51.0421486 Z" id="Shape"></path>
                </g>
                <g id="Clipped" transform="translate(108.217752, 0.000000)" fill="#4DC9DB">
                    <path d="M30.3343839,153.641895 L0.0813945485,153.641895 L0.0813945485,54.062544 C0.0813945485,18.0616428 16.8683265,0.0255642212 50.4426528,0.0255642212 C63.3512038,0.0255642212 74.1788755,4.16928155 82.8685529,12.3626723 C91.5307133,20.5436857 95.9346902,31.1485575 95.9346902,44.0494666 C95.9346902,56.9947948 90.8742385,66.6358608 80.8792423,73.0578014 C94.6872957,79.8731533 101.552648,92.0003109 101.552648,109.413016 C101.552648,122.203224 97.738435,132.748407 90.1329007,141.10062 C82.5269039,149.465557 72.5978095,153.641779 60.4369553,153.641779 L38.4585773,153.641779 L38.4585773,123.356737 L55.4034424,123.356737 C64.8408165,123.356737 69.552451,117.768236 69.552451,106.603496 C69.552451,94.9787162 64.092426,89.1440586 53.2647544,89.1440586 L38.4585773,89.1440586 L38.4585773,62.7858428 L46.2220448,62.7858428 C58.133397,62.7858428 64.0923104,57.5821936 64.0923104,47.1168261 C64.0923104,42.1854762 62.6950759,38.1345304 59.7807117,35.027957 C56.8931707,31.8894572 52.9225273,30.310722 48.046832,30.310722 C36.2282048,30.310722 30.3343839,37.2289092 30.3343839,51.0459659 L30.3343839,153.641895 L30.3343839,153.641895 Z" id="Shape"></path>
                </g>
            </g>
            <g id="Text" transform="translate(0.080470, 165.496059)" sketch:type="MSShapeGroup">
                <g id="Clipped" transform="translate(0.000000, 1.156752)" fill="#F589A5">
                    <path d="M0.073532575,38.4116882 L0.073532575,13.5467237 C0.073532575,4.5535546 4.26223015,0.0569122028 12.6374286,0.0569122028 C15.8609533,0.0569122028 18.5646628,1.07901835 20.7395391,3.12820467 C22.9170745,5.18028288 24.0026049,7.81814034 24.0026049,11.0461727 C24.0026049,14.2732797 22.7507012,16.6862646 20.2500156,18.2805003 C23.6918257,19.9890231 25.4142916,23.0157806 25.4142916,27.367829 C25.4142916,30.5591923 24.4638021,33.199132 22.5600484,35.2857971 C20.6591851,37.3722308 18.1831259,38.4116882 15.1385767,38.4116882 L9.64814442,38.4116882 L9.64814442,30.8480333 L13.8892166,30.8480333 C16.2423746,30.8480333 17.4237518,29.4535687 17.4237518,26.6632513 C17.4237518,23.7588782 16.0642084,22.307617 13.3451218,22.307617 L9.64814442,22.307617 L9.64814442,15.7260446 L11.6043884,15.7260446 C14.5756363,15.7260446 16.0642084,14.4192618 16.0642084,11.8056961 C16.0642084,10.5752589 15.7014015,9.56830625 14.9754407,8.79062182 C14.2495956,8.00865741 13.2711268,7.62056708 12.0411904,7.62056708 C9.10069671,7.62056708 7.63374497,9.34123581 7.63374497,12.7850025 L7.63374497,38.4116882 L0.073532575,38.4116882 Z" id="Shape"></path>
                </g>
                <g id="Clipped" transform="translate(28.673080, 10.642119)" fill="#5E5F5F">
                    <path d="M3.13530876,0.018276683 C4.0890355,0.018276683 4.83650107,0.317991149 5.38071149,0.917420081 C5.92526877,1.51395713 6.19569753,2.30251503 6.19569753,3.28355648 C6.19569753,4.25962389 5.92526877,5.05315582 5.38071149,5.65131233 C4.83650107,6.2477337 4.0890355,6.54895195 3.13530876,6.54895195 C2.18528176,6.54895195 1.43816305,6.2477337 0.896496206,5.65131233 C0.34893288,5.05315582 0.0781572653,4.25973957 0.0781572653,3.28355648 C0.0781572653,2.33259059 0.358297877,1.54842835 0.914763732,0.93604379 C1.47192329,0.32666679 2.21291429,0.018276683 3.13530876,0.018276683 L3.13530876,0.018276683 Z M5.70686777,28.7847346 L0.567102642,28.7847346 L0.567102642,9.15812196 L5.70686777,9.15812196 L5.70686777,28.7847346 L5.70686777,28.7847346 Z" id="Shape"></path>
                </g>
                <g id="Clipped" transform="translate(39.541102, 19.664786)" fill="#5E5F5F">
                    <path d="M5.55448423,19.8942851 L0.0892565219,19.8913932 L0.0892565219,0.264780553 L4.94240647,0.264780553 L4.94240647,3.97934286 L5.02252923,3.97934286 C5.94781413,1.34217945 7.60622806,0.0218626145 9.99892718,0.0218626145 L11.1001815,0.0218626145 L11.1001815,5.56999266 L9.83590685,5.56999266 C8.47659477,5.56999266 7.42124045,6.01418546 6.67701217,6.89308569 C5.92665618,7.77291133 5.55448423,8.90571865 5.55448423,10.2893098 L5.55448423,19.8942851 L5.55448423,19.8942851 Z" id="Shape"></path>
                </g>
                <g id="Clipped" transform="translate(52.721469, 14.575076)" fill="#5E5F5F">
                    <path d="M5.17826568,5.35448974 L8.93050811,5.35448974 L8.93050811,10.377223 L5.17826568,10.377223 L5.17826568,17.6691568 C5.17826568,19.1160223 5.778088,19.842694 6.97137371,19.842694 L8.93050811,19.842694 L8.93050811,24.9839943 L6.23940086,24.9839943 C3.98208954,24.9839943 2.35165499,24.3320488 1.34590048,23.0245719 C0.475533775,21.8825106 0.0420846813,20.1431025 0.0420846813,17.8021833 L0.0420846813,0.0924244919 L5.17826568,0.0924244919 L5.17826568,5.35448974 L5.17826568,5.35448974 Z" id="Shape"></path>
                </g>
                <g id="Clipped" transform="translate(64.398812, 11.220495)" fill="#5E5F5F">
                    <path d="M5.16392914,28.3385754 L0.0274012898,28.3385754 L0.0274012898,0.0616548863 L5.16392914,0.0616548863 L5.16392914,10.1804595 C6.12413045,8.8751804 7.61547744,8.22323492 9.64571646,8.22323492 C11.5336306,8.22323492 13.1088001,8.83851136 14.3699532,10.074848 C15.6306437,11.3183565 16.2583298,12.8729156 16.2583298,14.7504399 L16.2583298,28.338691 L11.078908,28.338691 L11.078908,16.5128674 C11.078908,14.4140564 10.1004391,13.3625688 8.14465762,13.3625688 C6.15789069,13.3625688 5.16392914,14.4141721 5.16392914,16.5128674 L5.16392914,28.3385754 L5.16392914,28.3385754 Z" id="Shape"></path>
                </g>
                <g id="Clipped" transform="translate(83.938128, 11.220495)" fill="#5E5F5F">
                    <path d="M14.1334003,0.0616548863 L19.3128221,0.0616548863 L19.3128221,18.4641925 C19.3128221,21.3471657 18.4305468,23.7808565 16.661834,25.7660744 C14.8136922,27.8067008 12.4630778,28.8279972 9.60929703,28.8279972 C6.77944906,28.8279972 4.45438603,27.7944392 2.63352986,25.7265135 C0.892912071,23.7694046 0.0217360442,21.3471657 0.0217360442,18.4641925 C0.0217360442,15.7163279 0.892912071,13.3494975 2.63352986,11.3620817 C4.42663789,9.26905448 6.67204063,8.22323492 9.3632635,8.22323492 C10.0704943,8.22323492 11.1164836,8.41375199 12.5033126,8.79247262 L12.5033126,14.2207631 C11.525653,13.8389193 10.5873034,13.6486336 9.68895732,13.6486336 C8.32976085,13.6486336 7.23498105,14.1192003 6.40739273,15.0552441 C5.57691398,15.9953365 5.16161679,17.1439914 5.16161679,18.5037534 C5.16161679,19.8643252 5.5556404,21.0222341 6.34588435,21.9718119 C7.13323786,22.926248 8.19437304,23.399938 9.52628384,23.399938 C10.9132284,23.399938 12.0263914,22.9385096 12.8698193,22.0127609 C13.7124378,21.0884003 14.1334003,19.9197337 14.1334003,18.5037534 L14.1334003,0.0616548863 L14.1334003,0.0616548863 Z" id="Shape"></path>
                </g>
                <g id="Clipped" transform="translate(106.367876, 19.433435)" fill="#5E5F5F">
                    <path d="M19.3144408,20.1256355 L14.1347877,20.1256355 L14.1347877,9.0394392 C14.1347877,7.754866 13.6735904,6.76156298 12.7479587,6.04715289 C11.9052245,5.45061584 10.8348399,5.1493976 9.52443396,5.1493976 C8.22050254,5.1493976 7.16826989,5.66322687 6.36553928,6.68753085 C5.56315552,7.70894294 5.1630042,8.9064127 5.1630042,10.2698764 C5.1630042,11.6118245 5.5844291,12.7367659 6.42751013,13.6546487 C7.27024431,14.5681358 8.35565912,15.0237804 9.69080719,15.0237804 C10.5855691,15.0237804 11.5791838,14.8211175 12.6679515,14.4107018 L12.6679515,19.7971179 C11.3359251,20.1256355 10.2350176,20.2894316 9.36152925,20.2894316 C6.56289794,20.2894316 4.30535539,19.3651867 2.59514494,17.5135736 C0.882275283,15.6641584 0.0240483893,13.3253214 0.0240483893,10.4970625 C0.0240483893,7.55521059 0.903317624,5.07536546 2.65330042,3.04989256 C4.40663611,1.01944562 6.72603389,0.0102950936 9.61068443,0.0102950936 C12.3816832,0.0102950936 14.6668583,0.770049865 16.4604288,2.29372372 C18.3641825,3.92393443 19.314672,6.10337104 19.314672,8.82301088 L19.314672,20.1256355 L19.3144408,20.1256355 Z" id="Shape"></path>
                </g>
                <g id="Clipped" transform="translate(129.375710, 19.896136)" fill="#5E5F5F">
                    <path d="M0.01896123,0.0334301354 L5.16138556,0.0334301354 L5.16138556,11.5013547 C5.16138556,13.8135864 6.17638945,14.9701072 8.21923075,14.9701072 C10.2303929,14.9701072 11.2361474,13.8135864 11.2361474,11.5013547 L11.2361474,0.0334301354 L16.4122164,0.0334301354 L16.4122164,12.5644098 C16.4122164,16.5887503 14.5792204,19.0109892 10.9099912,19.8267308 L10.9099912,27.9869227 L5.48453579,27.9869227 L5.48453579,19.8267308 C1.83935493,19.0109892 0.0190768473,16.5887503 0.0190768473,12.5644098 L0.0190768473,0.0334301354 L0.01896123,0.0334301354 Z" id="Shape"></path>
                </g>
                <g id="Clipped" transform="translate(148.799409, 0.000000)" fill="#4DC9DB">
                    <path d="M7.66796767,38.3774484 L0.107061579,38.3774484 L0.107061579,13.5104017 C0.107061579,4.51792663 4.29599039,0.0205901872 12.6685296,0.0205901872 C15.8952916,0.0205901872 18.5983075,1.04420011 20.7730681,3.09327076 C22.9508347,5.14685274 24.036712,7.78031455 24.036712,11.0119329 C24.036712,14.2398496 22.7880456,16.6498269 20.2837758,18.2462604 C23.7257016,19.9533951 25.4479362,22.9821191 25.4479362,27.3335891 C25.4479362,30.5249525 24.4975624,33.1614218 22.5941555,35.2478556 C20.6900549,37.3352147 18.2168861,38.3774484 15.1719901,38.3774484 L9.67901423,38.3774484 L9.67901423,30.8139092 L13.9236706,30.8139092 C16.2764817,30.8139092 17.4578589,29.4194445 17.4578589,26.6256569 C17.4578589,23.7232502 16.0947314,22.2749966 13.3795758,22.2749966 L9.67901423,22.2749966 L9.67901423,15.6889129 L11.6376862,15.6889129 C14.6096277,15.6889129 16.0947314,14.3844436 16.0947314,11.7709936 C16.0947314,10.5375488 15.7355086,9.53557017 15.0095478,8.75360575 C14.2837027,7.97152567 13.3059276,7.58343534 12.0747194,7.58343534 C9.13434134,7.58343534 7.66785206,9.30699595 7.66785206,12.7506469 L7.66785206,38.3774484 L7.66796767,38.3774484 Z" id="Shape"></path>
                </g>
                <g id="Clipped" transform="translate(176.894402, 18.161008)" fill="#5E5F5F">
                    <path d="M10.0202008,0.100984457 C12.9541043,0.100984457 15.3466878,1.0792497 17.1985293,3.03647423 C19.0472493,4.99369877 19.9697594,7.44335266 19.9697594,10.381503 C19.9697594,13.3456802 19.0472493,15.8097935 17.1985293,17.7696786 C15.3466878,19.7275971 12.9541043,20.7058624 10.0202008,20.7058624 C7.10976756,20.7058624 4.72943949,19.7211193 2.88141326,17.7459651 C1.03257772,15.7760163 0.110067628,13.3198846 0.110067628,10.381503 C0.110067628,7.44335266 1.03257772,4.99369877 2.88141326,3.03647423 C4.72943949,1.0792497 7.10976756,0.100984457 10.0202008,0.100984457 M10.0202008,5.23950858 C8.49705902,5.23950858 7.3197285,5.71400829 6.49202456,6.6620823 C5.65830852,7.60645471 5.24636424,8.84637727 5.24636424,10.381503 C5.24636424,11.9477453 5.65830852,13.2005078 6.49202456,14.1449959 C7.31961288,15.0930699 8.49705902,15.5630583 10.0202008,15.5630583 C11.5416082,15.5630583 12.7174357,15.0931856 13.5479145,14.1449959 C14.3751559,13.2005078 14.7871002,11.9477453 14.7871002,10.381503 C14.7871002,8.8182682 14.3809368,7.57256187 13.5690724,6.63964131 C12.7507335,5.70753048 11.5669284,5.23950858 10.0202008,5.23950858" id="Shape"></path>
                </g>
                <g id="Clipped" transform="translate(198.746064, 18.739384)" fill="#5E5F5F">
                    <path d="M15.1440107,0.00855996545 L15.1440107,4.86391118 L14.0828755,4.86391118 C12.8038018,4.86391118 11.7890292,5.38144207 11.0261865,6.41488438 C10.3464727,7.34491306 10.0078297,8.47124257 10.0078297,9.80312692 C10.0078297,11.1909981 10.3306331,12.336067 10.9854892,13.2317401 C11.7179245,14.2652981 12.7550113,14.782829 14.0828755,14.782829 L15.1874828,14.782829 L15.1874828,19.6380645 L13.8798516,19.6380645 C12.7115392,19.6380645 11.5303934,19.2909232 10.3306331,18.5959466 C9.13780985,17.9058283 8.1994602,16.9454927 7.51963073,15.7200295 C6.26738023,18.3307033 4.21343967,19.6380645 1.35884961,19.6380645 L0.014452157,19.6380645 L0.014452157,14.782829 L1.11616899,14.782829 C2.42033164,14.782829 3.44157887,14.2651824 4.17285802,13.2317401 C4.85268748,12.3059914 5.19456771,11.1631204 5.19456771,9.80312692 C5.19456771,8.44324917 4.86841143,7.30118783 4.21355529,6.37532346 C3.45348745,5.36837077 2.42044726,4.86391118 1.11628461,4.86391118 L0.0145677743,4.86391118 L0.0145677743,0.00855996545 L1.35896523,0.00855996545 C2.55884112,0.00855996545 3.71223887,0.338581336 4.82898595,0.991105189 C6.07765231,1.72645249 7.03056974,2.70390801 7.68322915,3.92879279 C8.9598749,1.31592118 11.0264177,0.00855996545 13.8801985,0.00855996545 L15.1440107,0.00855996545 L15.1440107,0.00855996545 Z" id="Shape"></path>
                </g>
            </g>
        </g>
    </g>
</svg>